<?xml version="1.0" encoding="utf-8"?>
<!-- Generator: Adobe Illustrator 23.0.3, SVG Export Plug-In . SVG Version: 6.00 Build 0)  -->
<svg version="1.1" id="Layer_1" xmlns="http://www.w3.org/2000/svg" xmlns:xlink="http://www.w3.org/1999/xlink" x="0px" y="0px"
	 viewBox="0 0 1920 1080" style="enable-background:new 0 0 1920 1080;" xml:space="preserve">
<style type="text/css">
	.st0{display:none;}
	.st1{fill:#7F3F97;}
	.st2{fill:#E6ADCA;}
	.st3{fill:#5D7B39;}
	.st4{fill:#5D7A39;}
	.st5{fill:#7E3F97;}
	.st6{fill:#D25C9A;}
	.st7{fill:#915AA6;}
	.st8{fill:#D8C4DF;}
	.st9{fill:#FCF9FB;}
	.st10{fill:#7F3F98;}
	.st11{fill:#CD6BA5;}
	.st12{fill:#A979B6;}
	.st13{fill:#9D4F9D;}
	.st14{fill:#D25C9B;}
</style>
<rect x="98.7" y="101.5" class="st0" width="1756.6" height="888.5"/>
<path class="st1" d="M871.1,808.4c-15.9,1.2-31.6-0.6-47.3-2.3c-2.1-0.2-4.2-0.4-6.3-0.4c-13.6-0.5-17.5,2-20.7,15.2
	c-2.6,10.8-4.9,21.7-6.4,32.8c-4.5,32.7-23.9,54.2-51.6,69.4c-37,20.4-73.7,16.3-110.1-1.9c-20.6-10.3-38.5-24.3-55.2-40
	c-2-1.9-4.2-3.7-6.2-5.5c-11.9-7.2-19.9-18.2-28.2-28.9c-19.6-25.3-37.3-51.9-48.4-82.2c-6.4-17.4-9.4-35.5-10.9-54
	c-3.6-43.9,4.7-86.8,10.6-129.9c0.7-5.1,0.6-10.2,1.6-15.3c3.2-16.6,11.3-25,28.2-25.8c18.6-0.8,37.2-2.2,55.8-3.1
	c14.2-0.7,28.3-2.1,42.6-1.6c11.2,0.4,22.3,2.2,33.5,1.5c17.8-0.6,35.5,0,53,3.2c8.4,1.7,17,1.4,25.3,3.5c2.7,0.7,5.4,1.1,8,2.2
	c2.7,1.1,4.6,3.2,6.2,5.5c18.5,27,40.9,50.7,64.3,73.3c28,27,56.8,53.1,90.7,72.7c1.8,1,3.5,2.3,5.5,3c5.6,2.1,8.7,6,9.5,11.9
	c2.3,25.5-6.3,48.7-15.5,71.7c-2.2,5.4-5,10.5-8.9,15c-3.1,3.5-6.3,6.9-10.7,8.8C877,809.1,873.8,807.1,871.1,808.4z"/>
<path class="st2" d="M739.6,546.8c-11.2-1.9-22.5-3.7-33.7-5.6c1.1-2.5-0.8-3.8-2.3-5.2c-10.1-9.8-20.4-19.4-28.5-31.1
	c-1.8-2.7-5-3.2-7-5.4c-14-21.6-26.8-43.7-35.3-68.1c-6.9-19.9-11.5-40.3-11.5-61.5c0-8.9-0.2-17.7,0.1-26.6
	c0.1-4.8,0.1-9.8,3.5-13.9c3.9-8.8,3.9-18.4,5.8-27.6c4.7-22.9,11.8-45.2,16.6-68.1c3.9-18.9,5.5-38,2.8-57.3
	c-1-7.1-0.7-14.3-1.2-21.5c-0.8-11.3-2.4-22.6-2-34.1c0.2-5.7,2-5.7,6.1-3.3c10.2,6,20.3,12.1,30.8,17.6c18.9,9.9,38.9,9.3,59.2,7.2
	c13.3-1.4,26.7-2.9,40-4.6c14.7-1.9,29.3-3.9,44-6c13.3-1.9,26.6-3.8,40.1-3.8c21.4,0,42.8,0.6,64.2-1.5c12.7-1.3,25.4-2.3,38.1-2.9
	c27.2-1.2,51.8,5.8,74.8,20c24,14.8,45.1,32.6,60.8,56.3c5.8,8.8,8.9,18.8,13,28.5c2.3,5.4,3.7,11.5,9.7,14.6c0.8,1,0.7,2,0.1,2.9
	c-13.3-1.3-27.6-15.8-29.6-30.3c-0.2-1.6-0.2-3.3-0.4-4.9c-0.4-4.8-0.9-9.8-6.2-11.6c-5.2-1.8-10.1-0.1-14.3,3.5
	c-7.1,6.1-11.3,14.2-15.7,22.1c-1.9,3.5-3.6,7.1-5.4,10.6c-2.2,4.3-5.1,5.1-8.9,1.8c-3.8-3.4-7.9-6.5-12-9.7
	c-19.7-15.1-38-1.7-45.9,12c-2.8,4.8-1.8,9.9,1.2,14.6c3,4.8,7.4,8.4,11.1,12.5c6.5,7.3,6.3,9-1.1,15.1c-7.4,6.1-14.9,11.9-21.5,19
	c-9.4,10-7.6,16.5,5.5,20.7c12,3.8,23.7,4.3,35.4-1.3c6.5-3.1,13.3-5.8,20.9-4.6c2.4,0.4,4.5,1,6.2,2.9c6.9,20,13.1,40.3,18.9,60.6
	c0.4,3.5-1,6.4-3.4,8.8c-14.5,13.9-28.9,27.8-44.6,40.3c-1.5,1.2-3,2.2-5.1,2c-6.3-3.8-10.8-9.6-15.5-14.9
	c-14.7-16.5-30.5-31.9-46.6-47c3.2-4,7.9-3.3,12.1-4c8.7-1.3,11.7-3.3,11.7-8.4c0.1-7.1-4.9-12.9-12-14.2c-3.7-0.7-7.5-0.1-11.2-0.6
	c-7-1-9.7-5.2-7.4-11.9c2-5.8,5.7-10.7,8.7-15.9c3-5.3,4.4-10.8,2.3-16.7c-2.4-6.8-6.6-8.3-13-4.7c-4.8,2.7-7.7,7.3-11.1,11.4
	c-6.2,7.5-7.6,7.5-13.2-0.7c-4.8-7.1-8.7-14.8-16.7-19.4c-9.9-5.7-19.6-3-24.2,7.5c-2.8,6.5-4.4,13.1-3,20.4
	c1.6,8.7-0.8,11.7-9.6,13.8c-8,1.9-16.2,0.9-24.3,2.5c-12.9,2.6-15.7,15-9.2,24.1c4.4,6.1,9.4,7.5,16.3,4.2
	c3.8-1.8,7.4-3.9,11.4-5.3c3.5-1.2,7-1.8,9.6,1.5c2.8,3.5,2.6,7.4,0.3,11.1c-2.2,3.6-5.4,6.4-8.6,9.2c-10.4,9.1-15.4,20.8-17.7,34
	c-0.5,2.8-0.8,5.6-2.9,7.7c-3.9,1.6-6.8-0.9-9.7-2.6c-7.6-4.6-15.7-8.2-24-11.3c-3.1-1.1-6.1-2.2-9.4-2.6c-10.8-1.2-13.6,0-18.3,9.8
	c-4.9,10.1-8.6,20.8-10.3,31.9c-1.5,9.3,1.6,17.5,8.3,24.2c8.4,8.5,18,15.6,25.9,24.5c2.9,3.2,7.7,6.2,6.3,10.9
	c-1.3,4.3-6.7,3.2-10.4,4.2c-17.6,4.6-35.3,8.7-53.8,7.9c-3.7-0.2-7.4,0.9-11,1.8c-4.9,1.2-6.5,4.2-4.2,8.9
	c2.7,5.7,5.4,11.4,8.6,16.8C738.7,541,740.8,543.4,739.6,546.8z"/>
<path class="st3" d="M1566.6,526.5c13.5,10.8,26.7,21.9,38.9,34c3.6,3.6,4.9,2.9,7.5-1c13.1-20,31-34.5,52.2-45.2
	c14.7-7.3,29.5-8.5,45.2-2.9c23,8.3,44.3,19.7,62.9,35.3c30.8,25.7,38.8,59.1,24,97.6c-12.4,32.1-33.1,58.5-58.3,81.7
	c-26.8,24.6-57,45.1-84.4,69c-24.4,21.3-48.8,42.6-68.2,69c-5.7,7.7-10.2,16-14.6,24.7c-0.5-8-1-15.9-2.5-23.7
	c-4.7-24.5-17.3-45-33.6-63.3c-5.4-6-9.8-13.1-17.3-17c-7.9-3.8-12.6-11.5-19.6-16.4c-13.5-13-29.1-23.3-43.8-34.9
	c-16.4-12.9-31.8-26.8-45.9-42c-15.6-16.8-22.6-37.8-28.7-59.3c-1-3.4-1.7-6.8-2.9-10.1c-6.3-20.5-4.4-41.4-4-62.3
	c1.9-21,10-39.6,22.8-56.1c12.6-16.3,29-26.6,49.9-29c15.2-2.7,29.7,0.4,44,5.2c26.9,9,50.2,24.4,72.7,41.3
	C1564.8,522.4,1566.7,523.8,1566.6,526.5z"/>
<path class="st4" d="M625,329.5c-8.4,59.5,7.7,112.8,40.5,162.1c1.7,2.6,4.7,4.8,4.1,8.6c-9.8,5.1-19.1,11.3-30.9,10.7
	c-5.7-8.1-9-17.3-13-26.2c-10.6-23.4-23.1-45.8-36.7-69.4c3.2,21,2.8,40.6,1.4,60.2c-0.5,6.5,0.1,13.1-0.2,19.6
	c-0.7,15.6-10.3,22.7-25.5,19.1c-3.4-0.8-6.8-2-9.6-4c-17.4-12.2-36-12.2-55.5-6.4c-19.7,5.9-38.3,14.7-57.2,22.8
	c-19.3,8.2-37.7,18.6-58.1,24c-6.2,1.6-9.1,6.1-9.5,12.4c-0.6,7.5,2.1,14.2,5.3,20.8c6.8,13.8,13.8,27.5,20.6,41.3
	c1.3,2.6,3.4,5.2,2,8.5c-12.2,7.1-24.2,14.8-36.8,21.3c-28.7,14.8-51.5,36.6-73,60c-18.3,19.9-35.8,40.4-55.3,59.3
	c-17.8,17.2-39.2,26.3-63.1,30.3c-8.1,1.4-10-0.9-7.1-8.5c2.5-6.6,6.1-12.7,10.9-17.8c18.5-20.1,26.7-44.5,29.1-71
	c3.8-41.3,15.8-80.5,28.7-119.6c7.6-23.1,15.6-46.1,23.4-69.1c11.1-32.5,29.4-59.5,58.7-78.4c18.2-11.7,31.1-29.7,48.2-42.3
	c41.3-30.5,83.2-60.6,135.1-71.4c33.7-7,67.6-6.4,101.4-1.4C610.2,325.9,618,326.1,625,329.5z"/>
<path class="st5" d="M1127.3,245.7c0.1-0.9,0.2-1.9,0.2-2.8c3.4-7.8,5.1-16.3,9.5-23.8c3.6-6.4,8.3-11.4,15.3-13.5
	c31.6-9.4,42.9-32.9,45.3-63.2c1.2-15.3,2-30.6,6.3-45.5c7.7-27.1,27.9-38.6,53.7-42.9c26-4.4,50.2,3,74.4,11.1
	c16.7,5.6,33.5,11,50.1,16.9c10.7,3.9,21.2,8.6,28.6,17.8c1.8,2.3,3.9,2,6.3,1.6c1.8-0.3,4.1-1,5.3,0.7c1.4,2-0.3,4.1-1.4,5.7
	c-5.8,9.4-13.9,16.8-21.3,25c-19.9,22.1-43.3,40.3-65.1,60.2c-20.6,18.7-35.2,40.8-38.4,69.2c-2.4,21.7,2,42.6,8.5,63.2
	c2.1,6.6,4.5,13.2,6.8,19.8c1.2,4.1-1.8,6.5-3.7,9.3c-12.4,18.7-24.3,37.7-32.8,58.5c-2.9,7.1-4.6,14.7-6.6,22.1
	c-0.6,2.2,0,5.5-3.9,5.5c-3.7-3.9-3.6-9-4.2-13.7c-0.7-5.3-3.4-7.3-8.4-6.9c-9.3,0.8-18.3,3.2-27.4,5.2c-11.1,2.4-22.2,5.2-33.8,3.5
	c-12-1.8-21.2-8-28.8-16.9c-9.6-11.2-16.6-24.2-25.7-35.7c-3.1-4-7.6-7-8.9-12.3c-3-24.9-5-49.9-4.1-75c0.7-3.6,3.7-5.1,6.4-7
	c4-2.7,8.2-5.3,11.4-9.1c5.3-6.5,4.6-11.1-1.7-16.7C1135.3,252.2,1129.4,251.1,1127.3,245.7z"/>
<path class="st1" d="M1446.7,476.1c-25.5,3.5-43.5,17.9-56.3,39.4c-7.8,13-13.3,27-14.7,42.4c-12.4,15.4-24.3,31.2-35.4,47.8
	c10.3,4.4,20.4,8.4,30.4,12.8c2.7,1.2,6,1.8,6.7,5.4c-0.2,1.2-0.8,2.3-1.8,2.8c-17.8,9.8-28.5,26.5-40.9,41.6
	c-18.4,22.5-39,42.6-63.1,59.1c-20.3,14-35.2,12.3-55.7-2.7c-3.5-2.6-7.1-5.4-8.3-10.1c0-1.1,0.2-2.1,1.1-2.9
	c6.2-0.4,10.1,4.3,15,6.6c4,1.8,7.6,4.5,11.7,6.3c1.6,0.7,3.4,2.5,5.1,1.3c1.9-1.3,0.7-3.5,0.4-5.2c-1.8-9.9-4.7-19.5-7.5-29.1
	c-3.1-10.5-6.2-21-7-32c0-3.7,0-7.3,0-11c0.9-16.7,9.3-30.1,19.6-42.2c13-15.2,24.1-31.2,29.8-50.5c3.8-5.7,9-10,13.8-14.8
	c16.3-16.1,31.9-32.7,45.6-51.1c12.4-16.6,22-34.6,30.6-53.3c23.6-51.5,52-100.1,87.6-144.3c5.7-7.1,12.6-13.2,19.1-19.4
	c3-2.9,5.8-3.3,6.8,1.8c0.9,4.3,3.3,4.8,7.5,4.9c16.2,0.4,32.5,0.7,47.8,7c19.5,5.7,39.4,9.3,59.7,6.4c14.3-2.1,23.6-12.5,32.6-22.7
	c3.6-4,7.4-7.6,13.5-11.8c-5.2,21.3-13.3,39.5-21.9,57.5c-5.1,4-7.3,4-10.6-0.7c-1.4-2-2.3-0.5-3.2-0.3
	c-18.4,3.1-32.1,13.9-42.8,28.2c-18.3,24.5-36.9,48.7-57.3,71.5c-11.8,13.2-23.5,26.5-36,39.1C1461.3,461,1455.4,470,1446.7,476.1z"
	/>
<path class="st2" d="M1534.7,286.5c-13.6-1.8-27-5-40.8-5.4c-1.6,0-3.3-0.4-4.9-0.3c-10.3,0.4-10.3,0.4-12.1-10
	c-10.6,9.4-20,19.2-28.3,30.1c-32.4,42.1-59.2,87.5-80.9,136c-16.6,37.1-40.1,69.2-69,97.5c-7.3,7.2-14.4,14.5-21.6,21.8
	c-3.1-0.6-2.3-3.2-2-4.9c4.4-31.7-2.9-62.3-9.2-93c-1.2-5.9-4.7-11.9-1.2-18.1c4.1-12.2,6-25.2,12-36.7c9.2-17.9,18.8-35.7,30.9-52
	c1.5-2,3.5-3.8,3.8-6.6c0.8,0.4,2.2,1.2,2.4,1c5-5.5,13.3-6,17.8-11.5c7.7-9.4,16.3-17.7,26.3-24.7c15.6-11,24.5-26.8,31.5-44
	c5.2-12.9,10.6-25.7,16.1-38.5c12.1-28.2,33.4-44.9,63.6-50.4c12.3-2.2,24.6-4.2,36.7-7.1c13.7-3.4,26.8-8.4,34.5-21.4
	c3-5.1,4.9-10.9,7.8-17.5c3.7,9.8,2.9,19,2,27.9c-2.6,24.6-8.2,49-6.6,73.9C1544.7,251.4,1541.6,269.2,1534.7,286.5z"/>
<path class="st6" d="M1446.7,476.1c3.8-7.1,10.1-12.1,15.4-17.8c26.3-28,52.1-56.4,76.1-86.4c11.7-14.7,21.2-31.2,35.5-43.9
	c9.5-8.4,20.5-13.5,33.1-15.2c1.5-0.2,5.2-2.1,2.5,2.5c-1.1,1.8,0.8,1.7,1.8,1.7c2.5,0,5.2,0.4,7.5-1.1c0.8,1.2,2,2,3.4,2.1
	c22.6,2,42.4,12,62.2,21.8c9.6,4.8,18.9,10,28.5,14.8c3.1,1.5,4.3,2.6,1.8,6c-7.7,10.5-10.5,22.6-10.4,35.6c0.1,8.9,0,17.7-0.3,26.6
	c-0.7,21.7-12.8,38-26.5,53.2c-14.4,16-31.3,29.1-48.6,42c-14.8,11.1-30.6,12.1-47.7,8.4c-4.7-1-9.6-2.1-14.3,0.2
	c-27.5-21.9-56.5-41.3-91.6-48.9C1465.8,475.6,1456.3,474.5,1446.7,476.1z"/>
<path class="st6" d="M402.5,633.4c-7.9-15.8-15.8-31.6-23.6-47.5c-3.6-7.3-6.7-14.8-6.2-23.3c0.3-6.5,2.8-11.4,9.2-13.3
	c32-9.6,61-26.4,91.9-38.4c13.2-5.1,26.4-10,40.6-12.2c14.1-2.2,26.7,0.7,38.6,8c3.4,2.1,6.8,3.9,10.7,5.1
	c15.1,4.7,24.7-1.7,24.7-17.4c-0.1-27.7,3.8-55.6-1.3-83.5c20.8,31.5,37.5,65,52.1,99.6c6.4,8.1,10.8,17.2,12.6,27.4
	c-11.2,1.3-22.3-0.9-33.4-1c-32.6-0.6-65,3.9-97.5,4.4c-17.6,0.3-26.3,10.2-27.5,28.8c-1.2,19.5-5.6,38.6-7.5,58
	c-1,9.9-2.8,19.8-3.5,29.7c-2.6,35.2-2.3,70.2,9.6,104c11,31.1,29.2,58.1,49.1,84.1c8.1,10.6,17.4,20,26.4,29.7
	c-26.2-11-48.2-27.6-67-48.9c-30.5-34.6-51.4-74.3-63.9-118.7c-7.1-25.1-19.2-48.3-31.1-71.5C404.6,635.3,403.4,634.5,402.5,633.4z"
	/>
<path class="st1" d="M1499.9,767.7c7.1,4.6,12.9,10.7,18.6,17c-21,6.9-42.7,10.8-64.2,15.2c-42.1,8.6-84.6,15.2-127.4,19.5
	c-28,2.9-56.1,4.1-84.3,5.3c-25.6,1-51.2-1.7-76.8-0.3c-43.1,2.2-85.4,9.5-127.4,19c-3.9,0.9-4.7,2.1-3.7,6.1
	c2.8,12,5.7,24,4.7,36.5c-0.2,2.5-0.2,5.2-0.8,7.6c-2.8,11.9-10.3,16.5-22.3,13.8c-9.8-2.2-18.9-6.4-27.8-11
	c-17.6-9.2-36.5-15-55.2-21.2c-3.4-1.1-5.9,0.1-8.7,0.9c-5.6,1.7-11,3.6-16.5,5.5c-1.6,0.4-3.3,1-3.3-1.7c5.5-2.4,11-4.8,17-7.5
	c-4.7-3.5-10-4.5-14.7-6.4c-10.6-4.3-21-8.8-30.2-15.6c-13.1-9.7-16.5-24.6-8.3-35.9c1.6-2.2,3.7-4,5.6-6c2.3-1.3,5-1.2,7.3-2.6
	c5.3-1.3,10.7-0.7,16-0.7c11.8-0.1,20.1-4.8,23.5-16.8c1.3-4.7,3.4-9.1,6.2-13.3c9.8-14.4,24.1-17.2,40.1-15.8
	c10.7,0.9,21.2,3.3,32,1.9c3.6-0.5,6.2,1.7,8.3,4.3c3.5,4.4,6.1,9.4,8.2,14.6c5.9,15,10.9,30.3,15,45.9c2.2,8.3,2.8,8.6,11.2,6.5
	c33.3-8.4,66.8-15.6,100.9-19.6c9.8-1.1,19.7-2.2,29.8-2.4c-0.6-2.9-2.5-3.5-4-4.5c-13.8-9-21.7-22.2-27.1-37.2
	c-7-19.1-10.8-39.1-15.3-58.9c-3.3-14.8-7-29.5-11.2-44.1c-6.4-22.3-18.5-41-35.7-56.5c-22.4-20.2-39.2-44.7-54.4-70.4
	c-6.3-10.6-10.9-22-13-34.3c0.4-1.1,1.1-1.7,2.3-1.7c2.4,1.7,3.5,4.4,4.4,7c8.7,23.1,24.2,41.7,39.3,60.7
	c12.2,15.3,28.1,26.5,41.7,40.1c16.2,16.2,27.3,35.2,32.7,57.5c0.3,1.2,1,2.1,1.6,3.1c6.7,17.7,11.1,36.1,16.5,54.2
	c4.1,13.6,7.8,27.4,14.4,40.1c4.7,8.9,10.8,16.2,19.7,21.2c8.2,4.6,15.7,10.2,20.8,18.3c2.3,3.7,5.8,4.1,9.7,4.3
	c14.7,0.7,29.4-0.7,44-1.7c37.5-2.7,74.7-7.1,111.7-13.7c38.6-6.9,77-14.7,114.9-24.8C1490.3,768,1494.9,765.2,1499.9,767.7z"/>
<path class="st1" d="M882.4,891.1c-7.8,3.9-10.8,11.9-15.4,18.4c-6.3,8.7-10.3,18.7-14.4,28.6c-6.6,15.8-17.8,26.9-32.8,34.7
	c-18.6,9.7-38.4,16.3-58.3,22.8c-4.6,1.5-5,0.2-3.8-4.3c15.9-55.5,53.5-87.6,108.5-101.2c2-0.5,4.2-0.3,6.3-0.5
	C875.8,889.4,879.6,887.2,882.4,891.1z"/>
<path class="st7" d="M882.4,891.1c-3-2.8-6.8-0.6-10.1-1.5c11.6-0.6,21.6-6.6,32.4-9.7c0.7,1.3,2,1.4,3.3,1.7
	C899.7,885.4,891.2,888.6,882.4,891.1z"/>
<path class="st8" d="M881.3,807.3c-2.1,1.8-4.8,0.9-7.2,1.2c-1,0-2-0.1-3-0.1c2.4-0.8,4.9-1.6,7.3-2.4
	C879.4,806.4,880.7,806,881.3,807.3z"/>
<path class="st6" d="M1012.6,504.7c8.4,30,26.1,54.8,44.8,79c11.2,14.4,25.6,25.7,37.4,39.6c10.3,12.2,16.7,26.2,21.3,41.2
	c-0.1,3.1-0.9,6-2.3,8.7c-18.2,36.8-48.1,55.7-89,57.2c-36.6,1.4-71.9-5-105.2-20.5c-2.4-1.1-4.4-1.2-6.6,0.2
	c-1-4.4-3.8-6.7-7.7-8.8c-23.7-12.8-45.1-28.7-65.1-46.6c-10.4-9.3-20.9-18.5-30.9-28.3c-25.3-24.8-49.6-50.5-69.6-79.8
	c-4.4-8.4-8.8-17-13.4-25.3c-3-5.5-1.3-8.8,4.5-10.2c4.5-1.1,9.2-2.5,13.7-2.3c17.7,0.8,34.6-3.3,51.6-7.5c0.7-0.2,1.3-0.5,2-0.7
	c3-0.9,8.1,0.7,8.8-2.5c0.7-3.4-3.3-6.4-5.9-8.9c-8.1-7.7-16.2-15.5-24.5-22.9c-10-9-13.2-20-9.8-32.8c2.5-9.2,5.2-18.4,9.5-27
	c6-12.1,11-14.3,24.2-10.4c10.6,3.1,20.5,7.7,30,13.2c2.8,1.6,5.8,2.8,8.8,4.2c2.5-0.4,4.6,0.8,6.5,2c7.7,4.9,16,8.4,24.3,12
	c16.8,8.5,34,16.2,51.7,22.6c21.9,8,42.7,7.4,63.1-4.3c7.9-3.3,14.4-8.7,21.6-13.2c2.1-1.3,4-3,6.6-3.6c7.7-3.3,13-9.6,19.1-14.9
	c10.6-9.1,20.4-19.1,30.5-28.6c1.7-1.5,2.5-3.3,2.5-5.5c9.5-8.2,17.9-17.8,29.5-23.2c13.9-5.2,26-2.4,34.7,7.9
	c12.8,12.8,21.4,28.6,32.2,42.9c13.4,17.8,30.8,22.2,51.7,17.9c13.6-2.8,26.8-7.2,40.9-7.9c6-0.3,7.6,2.5,8.2,7.5
	c0.6,5,1.8,10,2.8,15c2.9,15,5.9,30.1,8.7,45.1c4.3,23.1,7.7,46.3,3,69.8c-0.1,0.3,0.4,0.7,0.7,1.1c-5,21.8-19.1,38.2-32.7,55
	c-8.6,10.5-15,22.3-16.2,36.3c-0.9,4.2-0.9,8.3,0,12.5c1.7,16.9,8,32.7,12,49.1c1.3,5.4,2.5,10.8,3.4,16.2c0.7,3.8-0.8,5.3-4.6,3.2
	c-10.1-5.6-20.3-11.2-30.4-16.8c-1.3,0.3-2.6,0.1-3.8-0.6c-16.1-11.6-33.4-21.1-50.6-30.9c-4.4-2.5-8.8-5.3-13.5-7.4
	c-2.8-1.3-5.6-3.6-9.1-1.9c-6.4-26.3-19.8-48.7-40.5-65.9c-21.2-17.5-39.1-37.8-55.2-59.8c-9.4-12.9-16-27.2-21.9-42
	c-3.6-2.4-3.5-7.2-6.5-10.6C1010,496.8,1011.5,500.7,1012.6,504.7z"/>
<path class="st9" d="M1127.3,245.7c4.4,3,9,5.7,13.2,9c7.4,5.8,7.9,12,1.5,19c-4.9,5.3-10.8,9.5-17.4,12.6c-0.4,0.3-0.7,0.7-1.2,0.8
	c-11.4,1.9-11.8,2.4-10,14.5c1.3,8.7,0.8,17.1-3.5,25.1c-4.1,7.7-10.3,12.4-18.8,14.3c-4.8,0.7-9.7,0.3-14.5,0.3
	c-4.8,0-9.1-1.8-12.7-4.9c-6.2-5.4-11.6-11.8-17.5-17.6c-7.4-3-14.7-2.4-21.6,1.2c-14,7.3-28.3,7.9-43,2.5
	c-12.6-4.6-14.4-12.2-5.3-22c7.4-8.1,15.9-15,24.7-21.5c4.5-3.4,3.7-5.9,0.8-9.3c-4.2-4.9-9.4-9-13.1-14.5c-4.2-6.4-4.6-12.7,0-18.8
	c14.8-19.7,32.3-23.5,51.1-7.5c12,10.3,11.9,10.2,19.2-3.6c4.5-8.4,8.9-16.8,15.9-23.6c5.2-5.1,11.6-6.7,18-4.4
	c5.7,2.1,6.4,8.1,6.3,13.7c-0.4,14.4,8,23.1,19.2,30.1C1121.4,242.8,1124.4,244.1,1127.3,245.7z"/>
<path class="st9" d="M868.4,429c-10.2-4.3-20.2-9-29.5-15.2c2-19,9.1-35.4,24.5-47.6c1.4-1.1,2.8-2.6,3.8-4.1c1.9-3,1.9-6.2-0.1-9.1
	c-2.1-3-4.9-2.1-7.5-0.9c-3.8,1.7-7.8,3.2-11.3,5.4c-5.7,3.6-11,3.4-15.9-1.1c-5.2-4.8-8.3-10.7-6.7-18c2.2-9.7,9.4-13.7,24.2-14.2
	c5.1-0.2,10.2,0.2,15.2-1.3c7.4-2.2,9.1-3.9,7.2-11.4c-2.3-8.9,0.4-16.6,4.2-24.1c4.7-9.2,14.7-11.6,23.9-6.9
	c9.1,4.6,13.6,13,18.8,21c4.9,7.5,4.8,7.3,10.2,0.6c3.8-4.7,7.2-9.7,12.7-12.7c6.5-3.5,11.2-2,14.1,4.6c3.2,7.3,1.9,14-2,20.6
	c-3.1,5.2-6.8,10-8.8,15.8c-1.8,5.4,0.1,8.5,5.8,9.1c3,0.3,6.1,0,9.1,0.1c4.8,0.1,9.3,1.4,12.3,5.4c3.3,4.4,5.2,9.6,3.4,15
	c-1.8,5.4-7.3,5.4-11.7,6c-4.5,0.7-9.1,1-13.4,2.7c-1.6,3.7-0.6,7.1,0.9,10.7c4,9.4-1.1,16-11.4,15c-6.7-0.7-11.9-5-17.9-7.5
	c-3.2-1.3-6.6-3.4-8.7,1.5c-0.9,7.9-1.2,15.8-3.3,23.5c-3.7,13-12,16.5-23.7,9.9c-3.9-2.2-7-1.4-10.2,1.2
	C874.1,425.1,872,428.1,868.4,429z"/>
<path class="st1" d="M912.2,386.8c0.4-4.2,3.1-5,6.4-3.6c4.5,1.9,8.8,4.2,13.1,6.3c3.8,1.8,7.5,3.6,11.9,3.2
	c7.6-0.8,9.8-5.3,7.3-12.4c-1.2-3.5-8.5-8,0.1-11.6c2.9-0.3,4.7,1.6,6.6,3.4c19.1,18.3,37.3,37.6,55.1,57.3
	c-7.7,7.7-17.1,12.7-26.4,18c-2.5-0.7-4.7-1.9-6.8-3.5c-20-14.9-39.8-30-58.6-46.3C917.3,394.5,913.5,391.6,912.2,386.8z"/>
<path class="st10" d="M1046.5,318.7c3.2,0.9,6.4,2.6,8,5.2c8.6,13.7,21.2,17.5,36.3,15.7c3.6,6,4.9,12.4,3.1,19.3
	c-9,4.5-16.2,11.2-23.3,18.2c-1.6,1.6-2.6,4.8-6,3.1c-5.6-18.2-11.2-36.4-16.8-54.6C1047.3,323.3,1047,321,1046.5,318.7z"/>
<path class="st6" d="M1379.4,623.6c-0.8,0.1-1.6,0.1-2.4,0.2c-10.8-6.9-23.2-10.3-34.8-15.5c-3.2-1.4-4.7-2.5-2.2-5.9
	c10.8-14.5,21.5-29,32.4-43.5c0.7-1,1.6-2.6,3.3-1.2C1374.4,579.9,1374.2,601.9,1379.4,623.6z"/>
<path class="st2" d="M1094,358.9c-1-6.4-2.1-12.9-3.1-19.3c18.1-7.7,24.4-20,20.3-39.9c-0.7-3.4-1.3-7,0.2-10.2
	c3-6.5,8.3-4.1,13.2-3.3c-0.2,26.3,2,52.4,4.3,78.6c-4.6-1.6-7.9-5.6-12.6-7.1C1108.6,355.3,1101.3,355.4,1094,358.9z"/>
<path class="st11" d="M1228.2,660c-2-4.2-2-8.3,0-12.5C1228.2,651.7,1228.2,655.9,1228.2,660z"/>
<path class="st12" d="M1208.6,714.8c-1.8-0.9-2.6-2.4-3-4.2c1.2,0,2.2,0.2,2.9,1.2C1208.6,712.8,1208.6,713.8,1208.6,714.8z"/>
<path class="st13" d="M1012.6,504.7c-3.3-4.2-4.1-9.5-6.8-14c0.5-0.3,1-0.5,1.5-0.8c2.2,4.5,4.4,9,6.7,13.5
	C1013.5,503.8,1013,504.3,1012.6,504.7z"/>
<path class="st2" d="M912.2,386.8c21.7,21.2,46.3,38.9,70.4,57.2c1.3,1,2.4,2.1,3.6,3.2c-10.7,6-22.1,10-34.3,10.8
	c-8.6,0.6-17-1.7-25.3-4.2c-20.3-6.2-39.5-15.1-58.3-24.9c2.9-3,5.6-6.3,8.8-8.9c3.5-2.9,7.2-3.3,11.2,0.2c6.4,5.7,14.4,4,18.5-3.6
	c4.2-7.8,3.4-16.7,4.9-25C912.1,390.1,912,388.4,912.2,386.8z"/>
<path class="st14" d="M1051.5,262.4c6.8-0.1,12.9,5.5,12.8,11.8c-0.1,6.3-5.8,11.9-12.1,12c-6.7,0.1-12.7-5.5-12.7-12.1
	C1039.3,268,1045,262.5,1051.5,262.4z"/>
<path class="st14" d="M920.4,348.9c-0.1,8.5-7.3,15.1-16.7,15.2c-9.8,0.1-18.5-8.1-18.3-17.2c0.2-8.3,7.8-15.3,16.8-15.2
	C912.2,331.7,920.5,339.5,920.4,348.9z"/>
</svg>
